<svg width="18" height="18" viewBox="0 0 18 18" fill="none" xmlns="http://www.w3.org/2000/svg">
<path fill-rule="evenodd" clip-rule="evenodd" d="M9 16.5C13.1423 16.5 16.5 13.1423 16.5 9C16.5 4.85775 13.1423 1.5 9 1.5C4.85775 1.5 1.5 4.85775 1.5 9C1.5 13.1423 4.85775 16.5 9 16.5ZM11.652 6.348C11.7928 6.20737 11.9838 6.12844 12.1828 6.12858C12.3818 6.12872 12.5726 6.20792 12.7133 6.34875C12.8539 6.48958 12.9328 6.68051 12.9327 6.87953C12.9325 7.07855 12.8533 7.26937 12.7125 7.41L8.47275 11.6497L8.46975 11.6528C8.40026 11.7226 8.31764 11.7781 8.22664 11.8159C8.13564 11.8538 8.03806 11.8733 7.9395 11.8733C7.84094 11.8733 7.74336 11.8538 7.65236 11.8159C7.56136 11.7781 7.47874 11.7226 7.40925 11.6528L7.40625 11.6497L5.2875 9.531C5.21587 9.46182 5.15873 9.37906 5.11942 9.28755C5.08012 9.19605 5.05943 9.09764 5.05856 8.99805C5.0577 8.89847 5.07667 8.79971 5.11438 8.70753C5.15209 8.61536 5.20778 8.53162 5.2782 8.4612C5.34862 8.39078 5.43236 8.33509 5.52453 8.29738C5.61671 8.25967 5.71547 8.2407 5.81505 8.24156C5.91464 8.24243 6.01305 8.26312 6.10455 8.30242C6.19606 8.34173 6.27881 8.39887 6.348 8.4705L7.9395 10.0612L11.652 6.348Z" fill="#2C2B3C"/>
</svg>
