<svg width="15" height="15" viewBox="0 0 15 15" fill="none" xmlns="http://www.w3.org/2000/svg">
<g clip-path="url(#clip0_37_185)">
<path d="M6.25002 15C6.12502 15 6.00002 14.9375 5.93752 14.9375C5.75002 14.8125 5.62502 14.5625 5.62502 14.375V8.9375L0.12502 1C2.03848e-05 0.8125 -0.0624796 0.5625 0.0625204 0.3125C0.18752 0.125 0.37502 0 0.62502 0H14.375C14.625 0 14.8125 0.125 14.9375 0.3125C15.0625 0.5 15 0.75 14.875 0.9375L9.37502 8.9375V13.125C9.37502 13.375 9.25002 13.5625 9.00002 13.6875L6.50002 14.9375C6.43752 15 6.37502 15 6.25002 15ZM1.81252 1.25L6.75002 8.375C6.81252 8.5 6.87502 8.625 6.87502 8.75V13.375L8.12502 12.75V8.75C8.12502 8.625 8.18752 8.5 8.25002 8.375L13.1875 1.25H1.81252Z" fill="#646272"/>
</g>
<defs>
<clipPath id="clip0_37_185">
<rect width="15" height="15" fill="white"/>
</clipPath>
</defs>
</svg>
