<svg width="38" height="34" viewBox="0 0 38 34" fill="none" xmlns="http://www.w3.org/2000/svg">
<rect x="0.5" y="0.5" width="37" height="33" rx="7.5" stroke="#2C2B3C"/>
<path d="M22.4805 10.0117C21.4062 9.19531 20.1953 8.91406 18.6602 8.91406C17.4961 8.91406 16.5 9.15234 15.7109 9.68359C14.5469 10.4766 14 11.8086 14 13.9141H17C17 13.3516 16.9453 12.7461 17.2734 12.2266C17.6016 11.707 18.0586 11.3086 18.8438 11.3086C19.6406 11.3086 20.0508 11.5391 20.4375 12.0156C20.7656 12.4219 20.8906 12.9062 20.8906 13.4219C20.8906 13.8672 20.6641 14.2773 20.3945 14.6484C20.2461 14.8672 20.0508 15.0625 19.8047 15.25C19.8047 15.25 18.1836 16.2148 17.6133 17.1289C17.1875 17.8086 17.0352 18.6602 17 19.6797C16.9961 19.7539 17.0234 19.9062 17.2812 19.9062H19.6953C19.9219 19.9062 19.9687 19.7344 19.9727 19.6641C19.9883 19.293 20.0352 18.7227 20.1016 18.5078C20.2305 18.1016 20.4805 17.7461 20.8711 17.4414L21.6797 16.8828C22.4102 16.3125 22.9922 15.8477 23.25 15.4805C23.6914 14.8789 24 14.1367 24 13.2578C24 11.8242 23.4727 10.7656 22.4805 10.0117ZM18.4531 21.4609C17.4414 21.4297 16.6055 22.1328 16.5703 23.2305C16.5391 24.332 17.332 25.0547 18.3477 25.0859C19.4023 25.1172 20.2188 24.4375 20.25 23.3398C20.2812 22.2422 19.5078 21.4922 18.4531 21.4609Z" fill="#484E64"/>
</svg>
