<svg width="20" height="20" viewBox="0 0 20 20" fill="none" xmlns="http://www.w3.org/2000/svg">
<path d="M13.4805 3.01172C12.4062 2.19531 11.1953 1.91406 9.66016 1.91406C8.49609 1.91406 7.5 2.15234 6.71094 2.68359C5.54688 3.47656 5 4.80859 5 6.91406H8C8 6.35156 7.94531 5.74609 8.27344 5.22656C8.60156 4.70703 9.05859 4.30859 9.84375 4.30859C10.6406 4.30859 11.0508 4.53906 11.4375 5.01562C11.7656 5.42187 11.8906 5.90625 11.8906 6.42188C11.8906 6.86719 11.6641 7.27734 11.3945 7.64844C11.2461 7.86719 11.0508 8.0625 10.8047 8.25C10.8047 8.25 9.18359 9.21484 8.61328 10.1289C8.1875 10.8086 8.03516 11.6602 8 12.6797C7.99609 12.7539 8.02344 12.9062 8.28125 12.9062H10.6953C10.9219 12.9062 10.9687 12.7344 10.9727 12.6641C10.9883 12.293 11.0352 11.7227 11.1016 11.5078C11.2305 11.1016 11.4805 10.7461 11.8711 10.4414L12.6797 9.88281C13.4102 9.3125 13.9922 8.84766 14.25 8.48047C14.6914 7.87891 15 7.13672 15 6.25781C15 4.82422 14.4727 3.76562 13.4805 3.01172ZM9.45312 14.4609C8.44141 14.4297 7.60547 15.1328 7.57031 16.2305C7.53906 17.332 8.33203 18.0547 9.34766 18.0859C10.4023 18.1172 11.2188 17.4375 11.25 16.3398C11.2812 15.2422 10.5078 14.4922 9.45312 14.4609Z" fill="#484E64"/>
</svg>
