<svg width="146" height="38" viewBox="0 0 146 38" fill="none" xmlns="http://www.w3.org/2000/svg">
<g clip-path="url(#clip0_68_2)">
<path d="M29.0356 18.2399H2.70186C1.21207 18.2399 0 17.028 0 15.5382C0 14.0484 1.21207 12.8363 2.70186 12.8363H29.0356C30.999 12.8363 32.5963 11.239 32.5963 9.27558C32.5963 7.3122 30.9989 5.71486 29.0356 5.71486C27.0722 5.71486 25.4749 7.3122 25.4749 9.27558C25.4749 10.7654 24.2629 11.9774 22.7731 11.9774C21.2833 11.9774 20.0713 10.7654 20.0713 9.27558C20.0713 4.33261 24.0927 0.311218 29.0357 0.311218C33.9786 0.311218 38 4.33261 38 9.27558C38 14.2186 33.9786 18.2399 29.0356 18.2399ZM2.70186 14.3502C2.04688 14.3502 1.51391 14.8831 1.51391 15.5382C1.51391 16.1931 2.0468 16.7261 2.70186 16.7261H29.0356C33.1438 16.7261 36.4861 13.3838 36.4861 9.27566C36.4861 5.1675 33.1439 1.82521 29.0356 1.82521C24.9274 1.82521 21.5851 5.1675 21.5851 9.27566C21.5851 9.93064 22.118 10.4636 22.7731 10.4636C23.428 10.4636 23.9609 9.93071 23.9609 9.27566C23.9609 6.47754 26.2374 4.20102 29.0356 4.20102C31.8337 4.20102 34.1101 6.47746 34.1101 9.27566C34.1101 12.0739 31.8337 14.3503 29.0356 14.3503L2.70186 14.3502Z" fill="#EBEBEB"/>
<path d="M29.0356 37.6888C24.0926 37.6888 20.0712 33.6674 20.0712 28.7244C20.0712 27.2347 21.2833 26.0226 22.7731 26.0226C24.2629 26.0226 25.4748 27.2347 25.4748 28.7244C25.4748 30.6878 27.0722 32.2852 29.0356 32.2852C30.9989 32.2852 32.5962 30.6878 32.5962 28.7244C32.5962 26.7611 30.9989 25.1637 29.0356 25.1637H2.70186C1.21207 25.1637 0 23.9517 0 22.4619C0 20.972 1.21207 19.76 2.70186 19.76H29.0356C33.9786 19.76 38 23.7814 38 28.7244C38 33.6673 33.9786 37.6888 29.0356 37.6888ZM22.7731 27.5365C22.1182 27.5365 21.5852 28.0694 21.5852 28.7244C21.5852 32.8326 24.9275 36.1749 29.0357 36.1749C33.1439 36.1749 36.4861 32.8326 36.4861 28.7244C36.4861 24.6163 33.1439 21.274 29.0356 21.274H2.70186C2.04688 21.274 1.51391 21.8069 1.51391 22.4619C1.51391 23.117 2.0468 23.6499 2.70186 23.6499H29.0356C31.8338 23.6499 34.1102 25.9263 34.1102 28.7245C34.1102 31.5227 31.8338 33.7992 29.0356 33.7992C26.2374 33.7992 23.961 31.5228 23.961 28.7246C23.961 28.0695 23.428 27.5365 22.7731 27.5365Z" fill="#EBEBEB"/>
<path d="M12.7374 11.3939H1.84607C1.42807 11.3939 1.08911 11.055 1.08911 10.637C1.08911 10.2189 1.42807 9.88 1.84607 9.88H12.7374C13.1554 9.88 13.4944 10.2189 13.4944 10.637C13.4944 11.055 13.1554 11.3939 12.7374 11.3939Z" fill="#EBEBEB"/>
<path d="M16.5494 11.3939H16.0049C15.5869 11.3939 15.2479 11.055 15.2479 10.637C15.2479 10.2189 15.5869 9.88 16.0049 9.88H16.5494C16.9674 9.88 17.3064 10.2189 17.3064 10.637C17.3064 11.055 16.9674 11.3939 16.5494 11.3939Z" fill="#EBEBEB"/>
<path d="M16.5494 28.12H1.84607C1.42807 28.12 1.08911 27.7811 1.08911 27.363C1.08911 26.945 1.42807 26.6061 1.84607 26.6061H16.5494C16.9674 26.6061 17.3064 26.945 17.3064 27.363C17.3064 27.7811 16.9674 28.12 16.5494 28.12Z" fill="#EBEBEB"/>
</g>
<path d="M64.1165 10.5455V28H60.929L53.3352 17.0142H53.2074V28H49.517V10.5455H52.7557L60.2898 21.5227H60.4432V10.5455H64.1165ZM73.0632 28.2557C71.7166 28.2557 70.5575 27.983 69.5859 27.4375C68.62 26.8864 67.8757 26.108 67.353 25.1023C66.8303 24.0909 66.5689 22.8949 66.5689 21.5142C66.5689 20.1676 66.8303 18.9858 67.353 17.9688C67.8757 16.9517 68.6115 16.1591 69.5604 15.5909C70.5149 15.0227 71.6342 14.7386 72.9183 14.7386C73.782 14.7386 74.5859 14.8778 75.3303 15.1562C76.0803 15.429 76.7337 15.8409 77.2905 16.392C77.853 16.9432 78.2905 17.6364 78.603 18.4716C78.9155 19.3011 79.0717 20.2727 79.0717 21.3864V22.3835H68.0178V20.1335H75.6541C75.6541 19.6108 75.5405 19.1477 75.3132 18.7443C75.0859 18.3409 74.7706 18.0256 74.3672 17.7983C73.9695 17.5653 73.5064 17.4489 72.978 17.4489C72.4268 17.4489 71.9382 17.5767 71.5121 17.8324C71.0916 18.0824 70.7621 18.4205 70.5234 18.8466C70.2848 19.267 70.1626 19.7358 70.157 20.2528V22.392C70.157 23.0398 70.2763 23.5994 70.5149 24.071C70.7592 24.5426 71.103 24.9062 71.5462 25.1619C71.9893 25.4176 72.5149 25.5455 73.1229 25.5455C73.5263 25.5455 73.8956 25.4886 74.2308 25.375C74.5661 25.2614 74.853 25.0909 75.0916 24.8636C75.3303 24.6364 75.5121 24.358 75.6371 24.0284L78.995 24.25C78.8246 25.0568 78.4751 25.7614 77.9467 26.3636C77.424 26.9602 76.7479 27.4261 75.9183 27.7614C75.0945 28.0909 74.1428 28.2557 73.0632 28.2557ZM83.9297 28L80.3672 14.9091H84.0405L86.0689 23.7045H86.1882L88.3018 14.9091H91.907L94.0547 23.6534H94.1655L96.1598 14.9091H99.8246L96.2706 28H92.4268L90.1768 19.767H90.0149L87.7649 28H83.9297ZM111.298 15.5653C111.23 14.8778 110.938 14.3437 110.42 13.9631C109.903 13.5824 109.202 13.392 108.315 13.392C107.713 13.392 107.205 13.4773 106.79 13.6477C106.375 13.8125 106.057 14.0426 105.835 14.3381C105.619 14.6335 105.511 14.9688 105.511 15.3438C105.5 15.6562 105.565 15.929 105.707 16.1619C105.855 16.3949 106.057 16.5966 106.312 16.767C106.568 16.9318 106.864 17.0767 107.199 17.2017C107.534 17.321 107.892 17.4233 108.273 17.5085L109.841 17.8835C110.602 18.054 111.301 18.2812 111.938 18.5653C112.574 18.8494 113.125 19.1989 113.591 19.6136C114.057 20.0284 114.418 20.517 114.673 21.0795C114.935 21.642 115.068 22.2869 115.074 23.0142C115.068 24.0824 114.795 25.0085 114.256 25.7926C113.722 26.571 112.949 27.1761 111.938 27.608C110.932 28.0341 109.719 28.2472 108.298 28.2472C106.889 28.2472 105.662 28.0312 104.616 27.5994C103.577 27.1676 102.764 26.5284 102.179 25.6818C101.599 24.8295 101.295 23.7756 101.267 22.5199H104.838C104.878 23.1051 105.045 23.5937 105.341 23.9858C105.642 24.3722 106.043 24.6648 106.543 24.8636C107.048 25.0568 107.619 25.1534 108.256 25.1534C108.881 25.1534 109.423 25.0625 109.884 24.8807C110.349 24.6989 110.71 24.446 110.966 24.1222C111.222 23.7983 111.349 23.4261 111.349 23.0057C111.349 22.6136 111.233 22.2841 111 22.017C110.773 21.75 110.438 21.5227 109.994 21.3352C109.557 21.1477 109.02 20.9773 108.384 20.8239L106.483 20.3466C105.011 19.9886 103.849 19.429 102.997 18.6676C102.145 17.9062 101.722 16.8807 101.727 15.5909C101.722 14.5341 102.003 13.6108 102.571 12.821C103.145 12.0312 103.932 11.4148 104.932 10.9716C105.932 10.5284 107.068 10.3068 108.341 10.3068C109.636 10.3068 110.767 10.5284 111.733 10.9716C112.705 11.4148 113.46 12.0312 114 12.821C114.54 13.6108 114.818 14.5256 114.835 15.5653H111.298ZM125.883 22.4261V14.9091H129.513V28H126.028V25.6222H125.891C125.596 26.3892 125.104 27.0057 124.417 27.4716C123.735 27.9375 122.903 28.1705 121.92 28.1705C121.045 28.1705 120.275 27.9716 119.61 27.5739C118.945 27.1761 118.425 26.6108 118.05 25.8778C117.681 25.1449 117.494 24.267 117.488 23.2443V14.9091H121.119V22.5966C121.124 23.3693 121.332 23.9801 121.741 24.429C122.15 24.8778 122.698 25.1023 123.386 25.1023C123.823 25.1023 124.232 25.0028 124.613 24.804C124.994 24.5994 125.3 24.2983 125.533 23.9006C125.772 23.5028 125.888 23.0114 125.883 22.4261ZM136.048 20.4318V28H132.418V14.9091H135.878V17.2188H136.031C136.321 16.4574 136.807 15.8551 137.489 15.4119C138.17 14.9631 138.997 14.7386 139.969 14.7386C140.878 14.7386 141.67 14.9375 142.347 15.3352C143.023 15.733 143.548 16.3011 143.923 17.0398C144.298 17.7727 144.486 18.6477 144.486 19.6648V28H140.855V20.3125C140.861 19.5114 140.656 18.8864 140.241 18.4375C139.827 17.983 139.256 17.7557 138.528 17.7557C138.04 17.7557 137.608 17.8608 137.233 18.071C136.864 18.2812 136.574 18.5881 136.364 18.9915C136.159 19.3892 136.054 19.8693 136.048 20.4318Z" fill="#EBEBEB"/>
<defs>
<clipPath id="clip0_68_2">
<rect width="38" height="38" fill="white"/>
</clipPath>
</defs>
</svg>
