<svg width="38" height="38" viewBox="0 0 38 38" fill="none" xmlns="http://www.w3.org/2000/svg">
<g clip-path="url(#clip0_32_59)">
<path d="M29.0356 18.2399H2.70186C1.21207 18.2399 0 17.028 0 15.5382C0 14.0484 1.21207 12.8363 2.70186 12.8363H29.0356C30.999 12.8363 32.5963 11.239 32.5963 9.27558C32.5963 7.3122 30.9989 5.71486 29.0356 5.71486C27.0722 5.71486 25.4749 7.3122 25.4749 9.27558C25.4749 10.7654 24.2629 11.9774 22.7731 11.9774C21.2833 11.9774 20.0713 10.7654 20.0713 9.27558C20.0713 4.33261 24.0927 0.311218 29.0357 0.311218C33.9786 0.311218 38 4.33261 38 9.27558C38 14.2186 33.9786 18.2399 29.0356 18.2399ZM2.70186 14.3502C2.04688 14.3502 1.51391 14.8831 1.51391 15.5382C1.51391 16.1931 2.0468 16.7261 2.70186 16.7261H29.0356C33.1438 16.7261 36.4861 13.3838 36.4861 9.27566C36.4861 5.1675 33.1439 1.82521 29.0356 1.82521C24.9274 1.82521 21.5851 5.1675 21.5851 9.27566C21.5851 9.93064 22.118 10.4636 22.7731 10.4636C23.428 10.4636 23.9609 9.93071 23.9609 9.27566C23.9609 6.47754 26.2374 4.20102 29.0356 4.20102C31.8337 4.20102 34.1101 6.47746 34.1101 9.27566C34.1101 12.0739 31.8337 14.3503 29.0356 14.3503L2.70186 14.3502Z" fill="#EBEBEB"/>
<path d="M29.0356 37.6888C24.0926 37.6888 20.0712 33.6674 20.0712 28.7244C20.0712 27.2347 21.2833 26.0226 22.7731 26.0226C24.2629 26.0226 25.4748 27.2347 25.4748 28.7244C25.4748 30.6878 27.0722 32.2852 29.0356 32.2852C30.9989 32.2852 32.5962 30.6878 32.5962 28.7244C32.5962 26.7611 30.9989 25.1637 29.0356 25.1637H2.70186C1.21207 25.1637 0 23.9517 0 22.4619C0 20.972 1.21207 19.76 2.70186 19.76H29.0356C33.9786 19.76 38 23.7814 38 28.7244C38 33.6673 33.9786 37.6888 29.0356 37.6888ZM22.7731 27.5365C22.1182 27.5365 21.5852 28.0694 21.5852 28.7244C21.5852 32.8326 24.9275 36.1749 29.0357 36.1749C33.1439 36.1749 36.4861 32.8326 36.4861 28.7244C36.4861 24.6163 33.1439 21.274 29.0356 21.274H2.70186C2.04688 21.274 1.51391 21.8069 1.51391 22.4619C1.51391 23.117 2.0468 23.6499 2.70186 23.6499H29.0356C31.8338 23.6499 34.1102 25.9263 34.1102 28.7245C34.1102 31.5227 31.8338 33.7992 29.0356 33.7992C26.2374 33.7992 23.961 31.5228 23.961 28.7246C23.961 28.0695 23.428 27.5365 22.7731 27.5365Z" fill="#EBEBEB"/>
<path d="M12.7374 11.3939H1.84607C1.42807 11.3939 1.08911 11.055 1.08911 10.637C1.08911 10.2189 1.42807 9.88 1.84607 9.88H12.7374C13.1554 9.88 13.4944 10.2189 13.4944 10.637C13.4944 11.055 13.1554 11.3939 12.7374 11.3939Z" fill="#EBEBEB"/>
<path d="M16.5494 11.3939H16.0049C15.5869 11.3939 15.2479 11.055 15.2479 10.637C15.2479 10.2189 15.5869 9.88 16.0049 9.88H16.5494C16.9674 9.88 17.3064 10.2189 17.3064 10.637C17.3064 11.055 16.9674 11.3939 16.5494 11.3939Z" fill="#EBEBEB"/>
<path d="M16.5494 28.12H1.84607C1.42807 28.12 1.08911 27.7811 1.08911 27.363C1.08911 26.945 1.42807 26.6061 1.84607 26.6061H16.5494C16.9674 26.6061 17.3064 26.945 17.3064 27.363C17.3064 27.7811 16.9674 28.12 16.5494 28.12Z" fill="#EBEBEB"/>
</g>
<defs>
<clipPath id="clip0_32_59">
<rect width="38" height="38" fill="white"/>
</clipPath>
</defs>
</svg>
