<svg width="22" height="29" viewBox="0 0 22 29" fill="none" xmlns="http://www.w3.org/2000/svg">
<path d="M0.5 27.5843V0.5H17.1128L21.5 4.88724V27.5843H0.5Z" fill="#19172A" stroke="#2C2B3C"/>
<path d="M18.2639 13.8885C17.9265 13.287 16.7605 13.0981 16.2255 13.013C15.8039 12.946 15.3734 12.926 14.947 12.9263C14.6121 12.9241 14.2822 12.9406 13.9565 12.9591C13.8364 12.9672 13.7176 12.9776 13.5988 12.9878C13.4771 12.8619 13.3595 12.7317 13.2456 12.5986C12.5213 11.7411 11.9364 10.7687 11.4598 9.7582C11.5863 9.26994 11.6876 8.76039 11.7487 8.23119C11.8603 7.26534 11.8987 6.16462 11.5368 5.24378C11.4118 4.92597 11.0786 4.53905 10.6942 4.73172C10.2523 4.95329 10.128 5.58105 10.0919 6.02604C10.0629 6.38572 10.0832 6.74633 10.1436 7.09999C10.2051 7.45606 10.3042 7.79416 10.412 8.1318C10.5126 8.44137 10.6235 8.74853 10.7443 9.05282C10.6676 9.29236 10.5862 9.52773 10.5007 9.75708C10.3014 10.2798 10.0858 10.7764 9.87852 11.2541C9.76922 11.4909 9.66223 11.7228 9.55756 11.9495C9.22632 12.6771 8.86673 13.3913 8.46314 14.0818C7.52174 14.4139 6.67695 14.7988 5.97537 15.2512C5.59902 15.4944 5.26657 15.7585 4.9897 16.0481C4.72829 16.3216 4.46263 16.6765 4.43938 17.0693C4.42632 17.2911 4.51413 17.5062 4.69578 17.6378C4.9456 17.8244 5.27666 17.812 5.5665 17.7512C6.51596 17.5521 7.24505 16.7359 7.86595 16.0481C8.29362 15.5742 8.78039 14.9726 9.28958 14.245C9.29069 14.2433 9.2918 14.2417 9.29301 14.24C10.1663 13.9692 11.1168 13.7406 12.1255 13.5726C12.5864 13.4962 13.0594 13.4337 13.5419 13.3898C13.8813 13.7076 14.2479 13.9969 14.6479 14.2386C14.9594 14.4303 15.2907 14.5921 15.6375 14.7128C15.9882 14.8274 16.341 14.9209 16.7054 14.9801C16.8893 15.0064 17.0775 15.0184 17.2697 15.0112C17.6986 14.9949 18.3143 14.8304 18.3547 14.3099C18.3671 14.1506 18.3328 14.0109 18.2639 13.8885ZM7.99415 14.8435C7.79324 15.1547 7.59945 15.4347 7.41688 15.681C6.96976 16.2894 6.45909 17.012 5.71971 17.2822C5.57929 17.3335 5.3944 17.3865 5.1995 17.375C5.02591 17.3648 4.85473 17.2882 4.86261 17.0911C4.8665 16.9879 4.91698 16.8562 4.99442 16.7269C5.07918 16.5851 5.18413 16.4551 5.29778 16.3355C5.54131 16.0796 5.84921 15.8317 6.20343 15.602C6.7467 15.2496 7.3953 14.9323 8.11827 14.6492C8.07668 14.715 8.03519 14.7804 7.99415 14.8435ZM10.5157 7.03849C10.46 6.71298 10.4515 6.38294 10.4858 6.06559C10.5028 5.90692 10.5352 5.75204 10.582 5.60689C10.6216 5.48369 10.7072 5.18301 10.8437 5.14439C11.0688 5.08066 11.138 5.56391 11.1635 5.70063C11.3085 6.47835 11.1807 7.34324 11.0067 8.10614C10.979 8.22749 10.9481 8.34689 10.9165 8.46582C10.8626 8.31752 10.8112 8.16876 10.7639 8.01925C10.662 7.69273 10.5688 7.36241 10.5157 7.03849ZM12.0611 13.178C11.2154 13.3151 10.4109 13.4947 9.65464 13.7067C9.74569 13.6813 10.1618 12.8927 10.2546 12.729C10.6919 11.9588 11.0496 11.1504 11.3067 10.3024C11.7606 11.2001 12.3115 12.0588 12.9882 12.8232C13.0505 12.8926 13.1139 12.9612 13.1784 13.0289C12.7991 13.0697 12.4259 13.1195 12.0611 13.178ZM17.7804 14.2612C17.7495 14.4284 17.3924 14.524 17.2258 14.5503C16.7333 14.6278 16.2124 14.5658 15.7411 14.4075C15.4177 14.2989 15.1058 14.1511 14.8095 13.9732C14.5149 13.7953 14.2394 13.5859 13.9818 13.3551C14.2994 13.336 14.6209 13.3235 14.944 13.3296C15.2671 13.3329 15.5927 13.3492 15.9143 13.3911C16.5174 13.4584 17.1932 13.6654 17.668 14.0568C17.7614 14.1339 17.7913 14.2021 17.7804 14.2612Z" fill="#2C2B3C"/>
<path d="M18.0441 2.34011H0V0H17.3199L18.0441 2.34011Z" fill="#2C2B3C"/>
<path d="M8.70713 22.3379C8.70713 22.8345 8.56077 23.218 8.26787 23.4885C7.97498 23.759 7.55907 23.8943 7.01996 23.8943H6.68251V25.3687H5.48184V20.9244H7.02006C7.58139 20.9244 8.00295 21.047 8.28464 21.2922C8.56633 21.5374 8.70713 21.886 8.70713 22.3379ZM6.6826 22.9155H6.90149C7.08184 22.9155 7.22523 22.8649 7.33166 22.7635C7.43809 22.6621 7.49126 22.5222 7.49126 22.3439C7.49126 22.044 7.32509 21.894 6.99273 21.894H6.6826V22.9155Z" fill="#F2F2F2"/>
<path d="M13.188 23.0523C13.188 23.794 12.9838 24.3655 12.5754 24.7668C12.1671 25.168 11.593 25.3687 10.8534 25.3687H9.41547V20.9244H10.9537C11.667 20.9244 12.2177 21.1068 12.6058 21.4715C12.9939 21.8363 13.188 22.3633 13.188 23.0523ZM11.9417 23.0949C11.9417 22.6875 11.8611 22.3856 11.7 22.189C11.5389 21.9924 11.2942 21.8941 10.9658 21.8941H10.6163V24.3837H10.8838C11.2487 24.3837 11.5161 24.2779 11.6864 24.066C11.8565 23.8544 11.9417 23.5306 11.9417 23.0949Z" fill="#F2F2F2"/>
<path d="M15.1669 25.3687H13.9844V20.9244H16.611V21.888H15.1669V22.7361H16.4984V23.6998H15.1669V25.3687Z" fill="#F2F2F2"/>
<path d="M17.3199 4.68013H22L17.3199 0V4.68013Z" fill="#2C2B3C"/>
</svg>
