<svg width="15" height="15" viewBox="0 0 15 15" fill="none" xmlns="http://www.w3.org/2000/svg">
<path d="M8.125 12.5H3.75C3.58424 12.5 3.42527 12.4342 3.30806 12.3169C3.19085 12.1997 3.125 12.0408 3.125 11.875V3.125C3.125 2.95924 3.19085 2.80027 3.30806 2.68306C3.42527 2.56585 3.58424 2.5 3.75 2.5H6.875V4.375C6.875 4.87228 7.07254 5.3492 7.42417 5.70083C7.7758 6.05246 8.25272 6.25 8.75 6.25H10.625V7.5C10.625 7.66576 10.6908 7.82473 10.8081 7.94194C10.9253 8.05915 11.0842 8.125 11.25 8.125C11.4158 8.125 11.5747 8.05915 11.6919 7.94194C11.8092 7.82473 11.875 7.66576 11.875 7.5V5.625C11.875 5.625 11.875 5.625 11.875 5.5875C11.8685 5.53008 11.8559 5.47352 11.8375 5.41875V5.3625C11.8074 5.29824 11.7674 5.23917 11.7187 5.1875L7.96875 1.4375C7.91708 1.38889 7.85801 1.3488 7.79375 1.31875C7.77509 1.3161 7.75616 1.3161 7.7375 1.31875C7.67401 1.28234 7.60389 1.25897 7.53125 1.25H3.75C3.25272 1.25 2.77581 1.44754 2.42417 1.79917C2.07254 2.15081 1.875 2.62772 1.875 3.125V11.875C1.875 12.3723 2.07254 12.8492 2.42417 13.2008C2.77581 13.5525 3.25272 13.75 3.75 13.75H8.125C8.29076 13.75 8.44973 13.6842 8.56694 13.5669C8.68415 13.4497 8.75 13.2908 8.75 13.125C8.75 12.9592 8.68415 12.8003 8.56694 12.6831C8.44973 12.5658 8.29076 12.5 8.125 12.5ZM8.125 3.38125L9.74375 5H8.75C8.58424 5 8.42527 4.93415 8.30806 4.81694C8.19085 4.69973 8.125 4.54076 8.125 4.375V3.38125ZM5 5C4.83424 5 4.67527 5.06585 4.55806 5.18306C4.44085 5.30027 4.375 5.45924 4.375 5.625C4.375 5.79076 4.44085 5.94973 4.55806 6.06694C4.67527 6.18415 4.83424 6.25 5 6.25H5.625C5.79076 6.25 5.94973 6.18415 6.06694 6.06694C6.18415 5.94973 6.25 5.79076 6.25 5.625C6.25 5.45924 6.18415 5.30027 6.06694 5.18306C5.94973 5.06585 5.79076 5 5.625 5H5ZM8.75 7.5H5C4.83424 7.5 4.67527 7.56585 4.55806 7.68306C4.44085 7.80027 4.375 7.95924 4.375 8.125C4.375 8.29076 4.44085 8.44973 4.55806 8.56694C4.67527 8.68415 4.83424 8.75 5 8.75H8.75C8.91576 8.75 9.07473 8.68415 9.19194 8.56694C9.30915 8.44973 9.375 8.29076 9.375 8.125C9.375 7.95924 9.30915 7.80027 9.19194 7.68306C9.07473 7.56585 8.91576 7.5 8.75 7.5ZM12.9437 10.8063L11.6937 9.55625C11.6343 9.49935 11.5642 9.45475 11.4875 9.425C11.3353 9.36249 11.1647 9.36249 11.0125 9.425C10.9358 9.45475 10.8657 9.49935 10.8062 9.55625L9.55625 10.8063C9.43856 10.9239 9.37244 11.0836 9.37244 11.25C9.37244 11.4164 9.43856 11.5761 9.55625 11.6938C9.67394 11.8114 9.83356 11.8776 10 11.8776C10.1664 11.8776 10.3261 11.8114 10.4437 11.6938L10.625 11.5063V13.125C10.625 13.2908 10.6908 13.4497 10.8081 13.5669C10.9253 13.6842 11.0842 13.75 11.25 13.75C11.4158 13.75 11.5747 13.6842 11.6919 13.5669C11.8092 13.4497 11.875 13.2908 11.875 13.125V11.5063L12.0562 11.6938C12.1144 11.7523 12.1835 11.7988 12.2596 11.8306C12.3358 11.8623 12.4175 11.8786 12.5 11.8786C12.5825 11.8786 12.6642 11.8623 12.7404 11.8306C12.8165 11.7988 12.8856 11.7523 12.9437 11.6938C13.0023 11.6356 13.0488 11.5665 13.0806 11.4904C13.1123 11.4142 13.1286 11.3325 13.1286 11.25C13.1286 11.1675 13.1123 11.0858 13.0806 11.0096C13.0488 10.9335 13.0023 10.8644 12.9437 10.8063ZM7.5 11.25C7.66576 11.25 7.82473 11.1842 7.94194 11.0669C8.05915 10.9497 8.125 10.7908 8.125 10.625C8.125 10.4592 8.05915 10.3003 7.94194 10.1831C7.82473 10.0658 7.66576 10 7.5 10H5C4.83424 10 4.67527 10.0658 4.55806 10.1831C4.44085 10.3003 4.375 10.4592 4.375 10.625C4.375 10.7908 4.44085 10.9497 4.55806 11.0669C4.67527 11.1842 4.83424 11.25 5 11.25H7.5Z" fill="#F2F2F2"/>
</svg>
